# xmcd CD database file
#
# Track frame offsets:
#	150
#	21743
#	42520
#	76410
#	98159
#	115754
#	141374
#	162915
#	185493
#
# Disc length: 2797 seconds
#
# Revision: 0
# Processed by: cddbd v1.5.2PL0 Copyright (c) Steve Scherf et al.
# Submitted via: CDex 2.08
#
DISCID=7a0aeb09
DTITLE=Adalberto Alvarez - Locos por el son
DYEAR=2002
DGENRE=Salsa
TTITLE0=Las caras lindas
TTITLE1=Recordando al sonero
TTITLE2=Sones de matamoros
TTITLE3=Como podre olvidarla
TTITLE4=Acerca el oido
TTITLE5=Tributo
TTITLE6=Mamaita no quiere
TTITLE7=El son de la madugada
TTITLE8=Me voy contigo
EXTD=YEAR: 2002
EXTT0=
EXTT1=
EXTT2=
EXTT3=
EXTT4=
EXTT5=
EXTT6=
EXTT7=
EXTT8=
PLAYORDER=
